# File created by Blade
# Date/Time:  Thu Jan 22 16:52:56 2015
# Frame Rate: 120.000 fps
#------------------------------------------------------
:FULLY-SPECIFIED
:DEGREES
1963
root 3.517728 3.804726 0.016795 -32.832425 8.589128 -13.332458
RightUpLeg -27.324446 -38.787586 -36.124728
RightLeg -1.619244 -0.000000 0.000000
RightFoot 3.238247 -28.737319 29.898278
RightToeBase 6.397363 -0.000000 -0.000000
LeftUpLeg -61.865107 20.506109 13.152529
LeftLeg 3.965119 -0.000000 -0.000000
LeftFoot 7.478861 32.490306 -38.759111
LeftToeBase -2.190524 -0.000000 0.000000
Spine 72.358997 21.994665 -14.747465
RightShoulder -0.909886 5.646555 -47.806006
RightArm 83.677918 46.597218 33.282676
RightForeArm -27.348135 -0.000000 33.135183
RightHand 4.473769 -0.000000 -1.931254
RightHandThumb1 -24.326973 -0.000000 -32.862282
LeftShoulder 20.397791 -35.008966 48.041137
LeftArm 24.726209 -36.483241 -62.789707
LeftForeArm 48.915404 -0.000000 40.183636
LeftHand -31.477080 -0.000000 1.703342
LeftHandThumb1 -26.253704 0.000000 33.147579
Head 67.672009 27.006572 8.144001
1964
root 3.517165 3.804917 0.015740 -32.830812 8.572197 -13.327127
RightUpLeg -27.343692 -38.776774 -36.108547
RightLeg -1.611026 -0.000000 0.000000
RightFoot 3.237766 -28.748614 29.870221
RightToeBase 6.391573 -0.000000 -0.000000
LeftUpLeg -61.854449 20.528634 13.149176
LeftLeg 3.945115 -0.000000 -0.000000
LeftFoot 7.482833 32.478910 -38.782758
LeftToeBase -2.175752 -0.000000 0.000000
Spine 72.336142 22.001932 -14.722252
RightShoulder -0.918611 5.629856 -47.746517
RightArm 83.658893 46.564601 33.135258
RightForeArm -27.369994 -0.000000 33.081858
RightHand 4.494078 -0.000000 -2.035605
RightHandThumb1 -24.326973 -0.000000 -32.862282
LeftShoulder 20.467038 -35.026687 47.984241
LeftArm 24.697741 -36.491298 -62.769221
LeftForeArm 48.915520 -0.000000 40.152909
LeftHand -31.490346 -0.000000 1.737823
LeftHandThumb1 -26.253704 0.000000 33.147579
Head 67.696768 26.908697 8.124367
1965
root 3.517034 3.803326 0.014884 -32.830778 8.564161 -13.322806
RightUpLeg -27.370852 -38.776878 -36.098885
RightLeg -1.581187 -0.000000 0.000000
RightFoot 3.213005 -28.761339 29.856953
RightToeBase 6.432398 -0.000000 -0.000000
LeftUpLeg -61.844724 20.537087 13.151906
LeftLeg 3.925009 -0.000000 -0.000000
LeftFoot 7.497525 32.481146 -38.783157
LeftToeBase -2.164458 -0.000000 0.000000
Spine 72.321115 22.022336 -14.666697
RightShoulder -0.944903 5.527259 -47.668965
RightArm 83.701800 46.580620 33.057908
RightForeArm -27.423152 -0.000000 33.044960
RightHand 4.527600 -0.000000 -2.061076
RightHandThumb1 -24.326973 -0.000000 -32.862282
LeftShoulder 20.553579 -35.045935 47.967875
LeftArm 24.692844 -36.519733 -62.795304
LeftForeArm 48.903709 -0.000000 40.104409
LeftHand -31.453724 -0.000000 1.786816
LeftHandThumb1 -26.253704 0.000000 33.147579
Head 67.726212 26.786051 8.184582
1966
root 3.515719 3.801833 0.015273 -32.830047 8.549746 -13.313003
RightUpLeg -27.398768 -38.763227 -36.100657
RightLeg -1.524535 -0.000000 0.000000
RightFoot 3.119405 -28.719542 29.923484
RightToeBase 6.463040 -0.000000 -0.000000
LeftUpLeg -61.831613 20.556359 13.158703
LeftLeg 3.910420 -0.000000 -0.000000
LeftFoot 7.493832 32.471393 -38.808642
LeftToeBase -2.146516 -0.000000 0.000000
Spine 72.299350 22.045748 -14.624364
RightShoulder -0.961097 5.471771 -47.593728
RightArm 83.714345 46.571652 32.956838
RightForeArm -27.463071 -0.000000 33.007100
RightHand 4.536447 -0.000000 -2.091786
RightHandThumb1 -24.326973 -0.000000 -32.862282
LeftShoulder 20.625696 -35.049959 47.947329
LeftArm 24.686897 -36.537513 -62.808490
LeftForeArm 48.891193 -0.000000 40.072570
LeftHand -31.427813 -0.000000 1.802859
LeftHandThumb1 -26.253704 0.000000 33.147579
Head 67.746051 26.709226 8.294582
1967
root 3.517164 3.801768 0.014139 -32.838672 8.545238 -13.300379
RightUpLeg -27.417194 -38.778887 -36.097379
RightLeg -1.497840 -0.000000 0.000000
RightFoot 3.156388 -28.701640 29.873402
RightToeBase 6.476675 -0.000000 -0.000000
LeftUpLeg -61.801979 20.555422 13.167418
LeftLeg 3.891466 -0.000000 -0.000000
LeftFoot 7.491897 32.490049 -38.806300
LeftToeBase -2.149726 -0.000000 0.000000
Spine 72.314597 22.056225 -14.583023
RightShoulder -1.023550 5.385971 -47.530475
RightArm 83.846956 46.582125 32.978097
RightForeArm -27.557717 -0.000000 32.971083
RightHand 4.569257 0.000000 -2.044491
RightHandThumb1 -24.326973 -0.000000 -32.862282
LeftShoulder 20.683912 -35.086781 47.925627
LeftArm 24.634733 -36.547317 -62.785855
LeftForeArm 48.842850 -0.000000 40.053032
LeftHand -31.390202 -0.000000 1.825040
LeftHandThumb1 -26.253704 0.000000 33.147579
Head 67.710207 26.607173 8.255291
